M48
;DRILL file {KiCad 4.0.7-e2-6376~58~ubuntu16.04.1} date Thu May  3 17:23:58 2018
;FORMAT={3:3/ absolute / metric / suppress leading zeros}
FMAT,2
METRIC,TZ
T1C0.400
%
G90
G05
M71
T1
X98013Y-106636
X99029Y-99676
X106599Y-103334
X106726Y-102013
X107386Y-90710
X108783Y-95536
X108910Y-91980
X110942Y-95536
X112517Y-103334
X112593Y-97314
X113736Y-97314
X114879Y-97314
X115006Y-92107
X116022Y-97314
X116403Y-91853
X116911Y-98330
X117394Y-114408
X118257Y-102013
X119578Y-93250
X120950Y-97797
X120950Y-102648
T0
M30
