G04 #@! TF.FileFunction,Soldermask,Top*
%FSLAX46Y46*%
G04 Gerber Fmt 4.6, Leading zero omitted, Abs format (unit mm)*
G04 Created by KiCad (PCBNEW 4.0.7-e2-6376~58~ubuntu16.04.1) date Tue May  1 17:25:53 2018*
%MOMM*%
%LPD*%
G01*
G04 APERTURE LIST*
%ADD10C,0.100000*%
%ADD11R,0.750000X4.400000*%
%ADD12R,1.650000X1.900000*%
%ADD13R,1.700000X1.900000*%
%ADD14R,1.400000X0.650000*%
%ADD15R,0.650000X1.400000*%
%ADD16C,1.900000*%
%ADD17R,2.150000X2.200000*%
G04 APERTURE END LIST*
D10*
D11*
X102548000Y-109954000D03*
X103248000Y-109954000D03*
X103948000Y-109954000D03*
X104648000Y-109954000D03*
X105348000Y-109954000D03*
X106048000Y-109954000D03*
X106748000Y-109954000D03*
X107448000Y-109954000D03*
X108148000Y-109954000D03*
X108848000Y-109954000D03*
X109548000Y-109954000D03*
X110248000Y-109954000D03*
X110948000Y-109954000D03*
X111648000Y-109954000D03*
X112348000Y-109954000D03*
X113048000Y-109954000D03*
X113748000Y-109954000D03*
X114448000Y-109954000D03*
X115148000Y-109954000D03*
X115848000Y-109954000D03*
X116548000Y-109954000D03*
X117248000Y-109954000D03*
X117948000Y-109954000D03*
X118648000Y-109954000D03*
X119348000Y-109954000D03*
X120048000Y-109954000D03*
X120748000Y-109954000D03*
X121448000Y-109954000D03*
X122148000Y-109954000D03*
X122848000Y-109954000D03*
D12*
X100286000Y-112474000D03*
X100286000Y-109974000D03*
X103207000Y-102588000D03*
X103207000Y-105088000D03*
X96984000Y-98270000D03*
X96984000Y-100770000D03*
X96984000Y-103878000D03*
X96984000Y-106378000D03*
X100159000Y-103878000D03*
X100159000Y-106378000D03*
X96984000Y-112474000D03*
X96984000Y-109974000D03*
X128480000Y-109994000D03*
X128480000Y-112494000D03*
X125432000Y-109974000D03*
X125432000Y-112474000D03*
D13*
X96984000Y-92522000D03*
X96984000Y-95222000D03*
X103080000Y-92522000D03*
X103080000Y-95222000D03*
X100032000Y-95222000D03*
X100032000Y-92522000D03*
X121368000Y-105288000D03*
X121368000Y-102588000D03*
D14*
X106524000Y-95790000D03*
X106524000Y-96290000D03*
X106524000Y-96790000D03*
X106524000Y-97290000D03*
X106524000Y-97790000D03*
X106524000Y-98290000D03*
X106524000Y-98790000D03*
X106524000Y-99290000D03*
X106524000Y-99790000D03*
X106524000Y-100290000D03*
X106524000Y-100790000D03*
X106524000Y-101290000D03*
X106524000Y-101790000D03*
X106524000Y-102290000D03*
X106524000Y-102790000D03*
X106524000Y-103290000D03*
D15*
X108474000Y-105240000D03*
X108974000Y-105240000D03*
X109474000Y-105240000D03*
X109974000Y-105240000D03*
X110474000Y-105240000D03*
X110974000Y-105240000D03*
X111474000Y-105240000D03*
X111974000Y-105240000D03*
X112474000Y-105240000D03*
X112974000Y-105240000D03*
X113474000Y-105240000D03*
X113974000Y-105240000D03*
X114474000Y-105240000D03*
X114974000Y-105240000D03*
X115474000Y-105240000D03*
X115974000Y-105240000D03*
D14*
X117924000Y-103290000D03*
X117924000Y-102790000D03*
X117924000Y-102290000D03*
X117924000Y-101790000D03*
X117924000Y-101290000D03*
X117924000Y-100790000D03*
X117924000Y-100290000D03*
X117924000Y-99790000D03*
X117924000Y-99290000D03*
X117924000Y-98790000D03*
X117924000Y-98290000D03*
X117924000Y-97790000D03*
X117924000Y-97290000D03*
X117924000Y-96790000D03*
X117924000Y-96290000D03*
X117924000Y-95790000D03*
D15*
X115974000Y-93840000D03*
X115474000Y-93840000D03*
X114974000Y-93840000D03*
X114474000Y-93840000D03*
X113974000Y-93840000D03*
X113474000Y-93840000D03*
X112974000Y-93840000D03*
X112474000Y-93840000D03*
X111974000Y-93840000D03*
X111474000Y-93840000D03*
X110974000Y-93840000D03*
X110474000Y-93840000D03*
X109974000Y-93840000D03*
X109474000Y-93840000D03*
X108974000Y-93840000D03*
X108474000Y-93840000D03*
D16*
X124924000Y-95770000D03*
X124924000Y-100770000D03*
D17*
X99830000Y-99032000D03*
X103080000Y-99032000D03*
M02*
