G04 #@! TF.FileFunction,Soldermask,Bot*
%FSLAX46Y46*%
G04 Gerber Fmt 4.6, Leading zero omitted, Abs format (unit mm)*
G04 Created by KiCad (PCBNEW 4.0.7-e2-6376~58~ubuntu16.04.1) date Tue May  1 17:25:53 2018*
%MOMM*%
%LPD*%
G01*
G04 APERTURE LIST*
%ADD10C,0.100000*%
%ADD11R,4.360000X4.360000*%
%ADD12R,1.670000X5.480000*%
%ADD13R,0.797560X1.747520*%
%ADD14R,1.397000X1.998980*%
%ADD15C,1.900000*%
%ADD16R,2.400000X2.400000*%
G04 APERTURE END LIST*
D10*
D11*
X107652000Y-105382000D03*
D12*
X118637000Y-105382000D03*
X96667000Y-105382000D03*
D13*
X101784600Y-95572520D03*
X100783840Y-95572520D03*
X102785360Y-95572520D03*
D14*
X104083300Y-91699020D03*
X96486160Y-91699020D03*
D13*
X99783080Y-95572520D03*
X98784860Y-95572520D03*
X97784100Y-95572520D03*
D10*
G36*
X126924000Y-105420000D02*
X124724000Y-105420000D01*
X124724000Y-102920000D01*
X126924000Y-102920000D01*
X126924000Y-105420000D01*
X126924000Y-105420000D01*
G37*
D15*
X124924000Y-95770000D03*
D10*
G36*
X122274000Y-96920000D02*
X119574000Y-96920000D01*
X119574000Y-94620000D01*
X122274000Y-94620000D01*
X122274000Y-96920000D01*
X122274000Y-96920000D01*
G37*
G36*
X122274000Y-99420000D02*
X119574000Y-99420000D01*
X119574000Y-97120000D01*
X122274000Y-97120000D01*
X122274000Y-99420000D01*
X122274000Y-99420000D01*
G37*
D15*
X124924000Y-100770000D03*
D10*
G36*
X122274000Y-101920000D02*
X119574000Y-101920000D01*
X119574000Y-99620000D01*
X122274000Y-99620000D01*
X122274000Y-101920000D01*
X122274000Y-101920000D01*
G37*
G36*
X126924000Y-93620000D02*
X124724000Y-93620000D01*
X124724000Y-91120000D01*
X126924000Y-91120000D01*
X126924000Y-93620000D01*
X126924000Y-93620000D01*
G37*
D16*
X128170000Y-114470000D03*
X121170000Y-114470000D03*
X121170000Y-107470000D03*
X128170000Y-107470000D03*
M02*
