G04 #@! TF.FileFunction,Legend,Bot*
%FSLAX46Y46*%
G04 Gerber Fmt 4.6, Leading zero omitted, Abs format (unit mm)*
G04 Created by KiCad (PCBNEW 4.0.7-e2-6376~58~ubuntu16.04.1) date Thu May  3 17:24:01 2018*
%MOMM*%
%LPD*%
G01*
G04 APERTURE LIST*
%ADD10C,0.100000*%
%ADD11C,0.381000*%
%ADD12C,0.150000*%
%ADD13C,0.250190*%
%ADD14C,0.251460*%
G04 APERTURE END LIST*
D10*
X101230399Y-98096464D02*
G75*
G03X113235000Y-98100000I6004601J7806464D01*
G01*
X101231646Y-98083470D02*
G75*
G03X97895000Y-99070000I-1306646J-1716530D01*
G01*
X96455000Y-103020000D02*
X97895000Y-99070000D01*
X98535000Y-114190000D02*
X96455000Y-112110000D01*
X115935000Y-114190000D02*
X98535000Y-114190000D01*
X115935000Y-114190000D02*
X118015000Y-112110000D01*
X118015000Y-103020000D02*
X116575000Y-99070000D01*
X116560244Y-99061831D02*
G75*
G03X113235000Y-98100000I-2015244J-738169D01*
G01*
X96455000Y-112110000D02*
X96455000Y-109650000D01*
X96455000Y-103650000D02*
X96455000Y-103020000D01*
X118015000Y-112110000D02*
X118015000Y-109650000D01*
X118015000Y-103650000D02*
X118015000Y-103020000D01*
D11*
X111414440Y-88992960D02*
X105414960Y-88992960D01*
X111510960Y-90793820D02*
X111510960Y-92693740D01*
X105313360Y-90793820D02*
X105313360Y-92693740D01*
D12*
X121869000Y-107095000D02*
X123012000Y-107095000D01*
X121869000Y-105952000D02*
X121869000Y-107095000D01*
X119964000Y-105952000D02*
X121869000Y-105952000D01*
X119964000Y-99348000D02*
X119964000Y-105952000D01*
X121869000Y-99348000D02*
X119964000Y-99348000D01*
X121869000Y-98205000D02*
X121869000Y-99348000D01*
X123012000Y-98205000D02*
X121869000Y-98205000D01*
X121869000Y-97595000D02*
X123012000Y-97595000D01*
X121869000Y-96452000D02*
X121869000Y-97595000D01*
X119964000Y-96452000D02*
X121869000Y-96452000D01*
X119964000Y-89848000D02*
X119964000Y-96452000D01*
X121869000Y-89848000D02*
X119964000Y-89848000D01*
X121869000Y-88705000D02*
X121869000Y-89848000D01*
X123012000Y-88705000D02*
X121869000Y-88705000D01*
X121869000Y-116595000D02*
X123012000Y-116595000D01*
X121869000Y-115452000D02*
X121869000Y-116595000D01*
X119964000Y-115452000D02*
X121869000Y-115452000D01*
X119964000Y-108848000D02*
X119964000Y-115452000D01*
X121869000Y-108848000D02*
X119964000Y-108848000D01*
X121869000Y-107705000D02*
X121869000Y-108848000D01*
X123012000Y-107705000D02*
X121869000Y-107705000D01*
D11*
X118399440Y-88992960D02*
X114401480Y-88992960D01*
X118495960Y-90793820D02*
X118495960Y-92693740D01*
X114299880Y-90793820D02*
X114299880Y-92693740D01*
D12*
X108035714Y-111078571D02*
X107892857Y-111126190D01*
X107845238Y-111173810D01*
X107797619Y-111269048D01*
X107797619Y-111411905D01*
X107845238Y-111507143D01*
X107892857Y-111554762D01*
X107988095Y-111602381D01*
X108369048Y-111602381D01*
X108369048Y-110602381D01*
X108035714Y-110602381D01*
X107940476Y-110650000D01*
X107892857Y-110697619D01*
X107845238Y-110792857D01*
X107845238Y-110888095D01*
X107892857Y-110983333D01*
X107940476Y-111030952D01*
X108035714Y-111078571D01*
X108369048Y-111078571D01*
X107511905Y-110602381D02*
X106940476Y-110602381D01*
X107226191Y-111602381D02*
X107226191Y-110602381D01*
X106083333Y-111602381D02*
X106654762Y-111602381D01*
X106369048Y-111602381D02*
X106369048Y-110602381D01*
X106464286Y-110745238D01*
X106559524Y-110840476D01*
X106654762Y-110888095D01*
D13*
X108727966Y-90276265D02*
X108727966Y-90991093D01*
X108775622Y-91134059D01*
X108870932Y-91229370D01*
X109013898Y-91277025D01*
X109109208Y-91277025D01*
X107727206Y-91277025D02*
X108299069Y-91277025D01*
X108013138Y-91277025D02*
X108013138Y-90276265D01*
X108108448Y-90419230D01*
X108203759Y-90514541D01*
X108299069Y-90562196D01*
D14*
D12*
X123154762Y-101316667D02*
X123202381Y-101459524D01*
X123202381Y-101697620D01*
X123154762Y-101792858D01*
X123107143Y-101840477D01*
X123011905Y-101888096D01*
X122916667Y-101888096D01*
X122821429Y-101840477D01*
X122773810Y-101792858D01*
X122726190Y-101697620D01*
X122678571Y-101507143D01*
X122630952Y-101411905D01*
X122583333Y-101364286D01*
X122488095Y-101316667D01*
X122392857Y-101316667D01*
X122297619Y-101364286D01*
X122250000Y-101411905D01*
X122202381Y-101507143D01*
X122202381Y-101745239D01*
X122250000Y-101888096D01*
X122202381Y-102221429D02*
X123202381Y-102459524D01*
X122488095Y-102650001D01*
X123202381Y-102840477D01*
X122202381Y-103078572D01*
X123202381Y-103983334D02*
X123202381Y-103411905D01*
X123202381Y-103697619D02*
X122202381Y-103697619D01*
X122345238Y-103602381D01*
X122440476Y-103507143D01*
X122488095Y-103411905D01*
X123154762Y-91816667D02*
X123202381Y-91959524D01*
X123202381Y-92197620D01*
X123154762Y-92292858D01*
X123107143Y-92340477D01*
X123011905Y-92388096D01*
X122916667Y-92388096D01*
X122821429Y-92340477D01*
X122773810Y-92292858D01*
X122726190Y-92197620D01*
X122678571Y-92007143D01*
X122630952Y-91911905D01*
X122583333Y-91864286D01*
X122488095Y-91816667D01*
X122392857Y-91816667D01*
X122297619Y-91864286D01*
X122250000Y-91911905D01*
X122202381Y-92007143D01*
X122202381Y-92245239D01*
X122250000Y-92388096D01*
X122202381Y-92721429D02*
X123202381Y-92959524D01*
X122488095Y-93150001D01*
X123202381Y-93340477D01*
X122202381Y-93578572D01*
X122297619Y-93911905D02*
X122250000Y-93959524D01*
X122202381Y-94054762D01*
X122202381Y-94292858D01*
X122250000Y-94388096D01*
X122297619Y-94435715D01*
X122392857Y-94483334D01*
X122488095Y-94483334D01*
X122630952Y-94435715D01*
X123202381Y-93864286D01*
X123202381Y-94483334D01*
X123154762Y-110816667D02*
X123202381Y-110959524D01*
X123202381Y-111197620D01*
X123154762Y-111292858D01*
X123107143Y-111340477D01*
X123011905Y-111388096D01*
X122916667Y-111388096D01*
X122821429Y-111340477D01*
X122773810Y-111292858D01*
X122726190Y-111197620D01*
X122678571Y-111007143D01*
X122630952Y-110911905D01*
X122583333Y-110864286D01*
X122488095Y-110816667D01*
X122392857Y-110816667D01*
X122297619Y-110864286D01*
X122250000Y-110911905D01*
X122202381Y-111007143D01*
X122202381Y-111245239D01*
X122250000Y-111388096D01*
X122202381Y-111721429D02*
X123202381Y-111959524D01*
X122488095Y-112150001D01*
X123202381Y-112340477D01*
X122202381Y-112578572D01*
X122202381Y-112864286D02*
X122202381Y-113483334D01*
X122583333Y-113150000D01*
X122583333Y-113292858D01*
X122630952Y-113388096D01*
X122678571Y-113435715D01*
X122773810Y-113483334D01*
X123011905Y-113483334D01*
X123107143Y-113435715D01*
X123154762Y-113388096D01*
X123202381Y-113292858D01*
X123202381Y-113007143D01*
X123154762Y-112911905D01*
X123107143Y-112864286D01*
D13*
X116736586Y-90212765D02*
X116736586Y-90927593D01*
X116784242Y-91070559D01*
X116879552Y-91165870D01*
X117022518Y-91213525D01*
X117117828Y-91213525D01*
X116307689Y-90308075D02*
X116260034Y-90260420D01*
X116164723Y-90212765D01*
X115926447Y-90212765D01*
X115831137Y-90260420D01*
X115783481Y-90308075D01*
X115735826Y-90403386D01*
X115735826Y-90498696D01*
X115783481Y-90641662D01*
X116355344Y-91213525D01*
X115735826Y-91213525D01*
D14*
D12*
X101011905Y-93102381D02*
X101011905Y-93911905D01*
X100964286Y-94007143D01*
X100916667Y-94054762D01*
X100821429Y-94102381D01*
X100630952Y-94102381D01*
X100535714Y-94054762D01*
X100488095Y-94007143D01*
X100440476Y-93911905D01*
X100440476Y-93102381D01*
X100011905Y-93197619D02*
X99964286Y-93150000D01*
X99869048Y-93102381D01*
X99630952Y-93102381D01*
X99535714Y-93150000D01*
X99488095Y-93197619D01*
X99440476Y-93292857D01*
X99440476Y-93388095D01*
X99488095Y-93530952D01*
X100059524Y-94102381D01*
X99440476Y-94102381D01*
M02*
